# xmcd
#
# Track frame offsets: 
#        150
#        25510
#        47805
#        72425
#        100462
#        123200
#        151915
#        180417
#        211117
#        234005
#
# Disc length: 3555 seconds
#
# Revision: 0
# Processed by: cddbd v1.5.2PL0 Copyright (c) Steve Scherf et al.
# Submitted via: ExactAudioCopyFreeDBPlugin 1.0
#
DISCID=730de10a
DTITLE=Thanh Lam - Bai hat ru anh
DYEAR=1900
DGENRE=
TTITLE0=Loi cu ta ve
TTITLE1=Giot suong tren mi mat
TTITLE2=Giot nang ben them
TTITLE3=Vinh biet mua he
TTITLE4=Mua xuan qua
TTITLE5=Bai hat ru anh
TTITLE6=Chia tay hoang hon
TTITLE7=Niem khuc cuoi
TTITLE8=Dau chan dia dang
TTITLE9=Gui nguoi em gai
EXTD=
EXTT0=
EXTT1=
EXTT2=
EXTT3=
EXTT4=
EXTT5=
EXTT6=
EXTT7=
EXTT8=
EXTT9=
PLAYORDER=
